<svg id="Logo" xmlns="http://www.w3.org/2000/svg" viewBox="0 0 491.46 223.77"><defs><style>.cls-1{fill:#fff;}</style></defs><path class="cls-1" d="M79.2,10.43A69.77,69.77,0,1,0,149,80.2,69.85,69.85,0,0,0,79.2,10.43Zm7.19,47.2a38,38,0,0,0-6.9,9,38,38,0,0,0-7.12-9.23l7.06-7ZM84.08,83.11a28.77,28.77,0,0,1,23.8-26.51V84.7a28.59,28.59,0,0,1-23.76,28.09V84.7C84.12,84.17,84.11,83.64,84.08,83.11Zm-9.25,0c0,.53,0,1.07,0,1.61v28.09A28.6,28.6,0,0,1,51,84.7V56.59A28.62,28.62,0,0,1,74.83,83.09Zm9,57.34V122.16a37.85,37.85,0,0,0,33.3-37.46V52a5,5,0,0,0-5.07-5,37.14,37.14,0,0,0-18.23,5L83.07,40.94a5,5,0,0,0-7.11,0L64.86,51.84a37.2,37.2,0,0,0-18-4.86H46.8a5,5,0,0,0-5,5V84.7a37.86,37.86,0,0,0,32.8,37.39v18.34a60.43,60.43,0,1,1,9.24,0Z" transform="translate(-9.43 -10.43)"/><path class="cls-1" d="M214.6,74.3V49a.68.68,0,0,0-.7-.7H186.2a.68.68,0,0,0-.7.7V74.3a.68.68,0,0,1-.7.7H173.7a.68.68,0,0,1-.7-.7v-59a.68.68,0,0,1,.7-.7h1.8a9.92,9.92,0,0,1,10,9.8V37.2a.68.68,0,0,0,.7.7h27.7a.68.68,0,0,0,.7-.7v-22a.68.68,0,0,1,.7-.7h1.8a9.92,9.92,0,0,1,10,9.8V74.2a.68.68,0,0,1-.7.7H215.3A.67.67,0,0,1,214.6,74.3Z" transform="translate(-9.43 -10.43)"/><path class="cls-1" d="M261.4,76.6c-14.4,0-25-10.2-25-23.3S247,30,261.4,30s24.9,10.3,24.9,23.3S275.7,76.6,261.4,76.6Zm0-38.2c-8,0-13.3,6-13.3,14.8S253.5,68,261.4,68s13.2-5.9,13.2-14.8C274.6,44.5,269.4,38.4,261.4,38.4Z" transform="translate(-9.43 -10.43)"/><path class="cls-1" d="M356.5,74.9a.43.43,0,0,1-.4-.4v-24c0-7.8-2.2-10.9-7.6-10.9a11,11,0,0,0-10.9,11.1V74.5a.43.43,0,0,1-.4.4h-11a.43.43,0,0,1-.4-.4v-24c0-7.8-2.1-10.9-7.6-10.9a11,11,0,0,0-10.9,11.1V74.5a.43.43,0,0,1-.4.4h-11a.43.43,0,0,1-.4-.4V31.9a.43.43,0,0,1,.4-.4h5.5a5.09,5.09,0,0,1,5.2,4.8l.1,1.9a.43.43,0,0,0,.8.2,18,18,0,0,1,14.9-8.1c7.9,0,12,3.5,13.9,8.9a.47.47,0,0,0,.8.1c4-5.7,9.5-9,15.9-9,11.8,0,15.2,8.1,15.2,18.8V74.5a.43.43,0,0,1-.4.4Z" transform="translate(-9.43 -10.43)"/><path class="cls-1" d="M418.3,53.5H389.4c-.2,0-.5.2-.5.4-.2,7.3,4.4,15.4,19.5,13.4a15.52,15.52,0,0,0,7.4-3,1.61,1.61,0,0,1,2.6,1.3v5.1c0,.1-.1.3-.2.3-4.2,3.1-10.6,5-17.9,5C386.6,76,377,66.2,377,52.8a22.14,22.14,0,0,1,22.4-22.6c11.3,0,19.8,6.9,19.8,17.2a33.23,33.23,0,0,1-.6,5.7C418.7,53.4,418.5,53.5,418.3,53.5ZM399.9,37.7c-4.9,0-9.1,2.7-10.3,9a.46.46,0,0,0,.4.5h18.1a.66.66,0,0,0,.5-.4C409.4,41.8,406,37.7,399.9,37.7Z" transform="translate(-9.43 -10.43)"/><path class="cls-1" d="M172.9,146.5V87a.43.43,0,0,1,.4-.4h3.6a8.39,8.39,0,0,1,8.5,8.3v51.7a.43.43,0,0,1-.4.4H173.3A.66.66,0,0,1,172.9,146.5Z" transform="translate(-9.43 -10.43)"/><path class="cls-1" d="M230.4,146.9a.47.47,0,0,1-.5-.5V122.9c0-8.4-3-11.3-8.4-11.3-5.7,0-11.8,5-11.8,11.1v23.7a.47.47,0,0,1-.5.5H198.3a.47.47,0,0,1-.5-.5V104a.47.47,0,0,1,.5-.5h5.4a5.09,5.09,0,0,1,5.2,4.8l.1,1.6a.48.48,0,0,0,.9.2,19.27,19.27,0,0,1,15.6-7.9c11.8,0,16.3,8.1,16.3,18.8v25.4a.47.47,0,0,1-.5.5Z" transform="translate(-9.43 -10.43)"/><path class="cls-1" d="M268.1,148.3a35,35,0,0,1-17.5-4.8c-.2-.1-.2-.3-.2-.5l1.7-7.2a.45.45,0,0,1,.6-.3,30,30,0,0,0,15.1,4.5c4.7,0,8-1.4,8-5,0-3.1-3.4-4.2-9.5-5.6-10.9-2.3-14.8-7.9-14.8-14.1,0-6.8,5.5-13.3,17.5-13.3a33.41,33.41,0,0,1,14.8,3.8.37.37,0,0,1,.2.5l-1.7,6.8a.45.45,0,0,1-.6.3,25.54,25.54,0,0,0-12.4-3.3c-4.8,0-7.2,1.6-7.2,4.2,0,2.9,3.1,4.2,7.8,5.3,11.7,2.4,16.5,7.8,16.5,13.6C286.5,142.6,279.5,148.3,268.1,148.3Z" transform="translate(-9.43 -10.43)"/><path class="cls-1" d="M312.2,111.7v34.6a.58.58,0,0,1-.6.6H301a.58.58,0,0,1-.6-.6V111.7a.58.58,0,0,0-.6-.6h-8.1a.58.58,0,0,1-.6-.6v-6.4a.58.58,0,0,1,.6-.6h8.1a.58.58,0,0,0,.6-.6V92.3a.65.65,0,0,1,.6-.6h2.9a8.35,8.35,0,0,1,8.4,8.2V103a.58.58,0,0,0,.6.6H321a.58.58,0,0,1,.6.6v6.4a.58.58,0,0,1-.6.6h-8.1A.54.54,0,0,0,312.2,111.7Z" transform="translate(-9.43 -10.43)"/><path class="cls-1" d="M367.4,125.5H339a.68.68,0,0,0-.7.7c0,6.5,3.6,13.5,15.1,13.5a25.52,25.52,0,0,0,13.3-4.2.7.7,0,0,1,1.1.6v6.6a.86.86,0,0,1-.3.6c-4.2,3.1-10.6,4.9-17.8,4.9-13.7,0-23.3-9.8-23.3-23.2a22.14,22.14,0,0,1,22.4-22.6c11.3,0,19.8,6.9,19.8,17.2a25.05,25.05,0,0,1-.6,5.5C368,125.3,367.7,125.5,367.4,125.5Zm-18.2-15.8c-4.8,0-9,2.6-10.2,8.7a.74.74,0,0,0,.7.9h17.5c.4,0,.7-.2.7-.6C358.6,113.7,355.1,109.7,349.2,109.7Z" transform="translate(-9.43 -10.43)"/><path class="cls-1" d="M413.9,146.6l-.3-5.7a.35.35,0,0,0-.6-.2,20.61,20.61,0,0,1-16,7.4c-12,0-20.9-9.9-20.9-22.9s8.9-22.9,20.9-22.9a20.29,20.29,0,0,1,16,7.4.33.33,0,0,0,.6-.2l.3-5.7c0-.2.2-.3.4-.3h2.5a7.83,7.83,0,0,1,7.9,7.8v35.4c0,.2-.2.3-.4.3H414.2C414.1,146.9,413.9,146.8,413.9,146.6Zm-13.3-35.7c-7,0-12.7,5.3-12.7,14.3s5.7,14.3,12.7,14.3,12.7-5.3,12.7-14.3S407.6,110.9,400.6,110.9Z" transform="translate(-9.43 -10.43)"/><path class="cls-1" d="M471.7,146.1l-.3-5.3a.35.35,0,0,0-.6-.2,20.59,20.59,0,0,1-16.1,7.5c-12,0-20.9-9.9-20.9-22.9s8.9-22.9,20.9-22.9a20.13,20.13,0,0,1,15.6,6.9c.1.1.2,0,.2-.1V87.4a.82.82,0,0,1,.9-.8h2.7a8.35,8.35,0,0,1,8.4,8.2v51.3a.9.9,0,0,1-.9.9h-9.1A1,1,0,0,1,471.7,146.1Zm-13.2-35.2c-7,0-12.7,5.3-12.7,14.3s5.7,14.3,12.7,14.3,12.7-5.3,12.7-14.3S465.5,110.9,458.5,110.9Z" transform="translate(-9.43 -10.43)"/><path class="cls-1" d="M489.72,143.05a5.59,5.59,0,1,1,5.58,5.57A5.57,5.57,0,0,1,489.72,143.05Zm10.45,0a4.86,4.86,0,1,0-4.87,4.85A4.87,4.87,0,0,0,500.17,143.05Zm-7.24-3.45h2.68a2,2,0,0,1,2.24,2.05,1.9,1.9,0,0,1-1.35,1.93l2,2.82H497l-1.85-2.7h-.85v2.7h-1.35Zm2.46,3.11a1.06,1.06,0,1,0,0-2.12h-1.11v2.12Z" transform="translate(-9.43 -10.43)"/><path class="cls-1" d="M409.7,204.3a112.15,112.15,0,0,0,15.9-14.1,40.89,40.89,0,0,0,8.6-13.5,11.5,11.5,0,0,0,.8-4.1c0-2.2-1.6-3.5-3.9-3.1a10.21,10.21,0,0,0-2.9,1.1,28.23,28.23,0,0,0-7.1,5.8,115.29,115.29,0,0,0-11.9,15c-3.3,4.9-6.2,9.9-7.1,16.1-2.6,1.2-5.1,2.5-7.7,3.6a18.74,18.74,0,0,1-4.1.9,2.2,2.2,0,0,1-2.4-1c.5-.8.9-1.7,1.4-2.5,2.4-3.5,4.9-6.9,7.3-10.4,1.1-1.6,2.2-3.2,3.2-4.9a2,2,0,0,0-.3-2.5,2.1,2.1,0,0,0-2.7-.2,12.49,12.49,0,0,0-1.2.9c-.5.4-.9.8-1.4,1.2a7.45,7.45,0,0,0-7.8-1.4,20.65,20.65,0,0,0-3.4,1.5,28,28,0,0,0-9.5,8.6c-2.5,3.5-5.8,6.3-9.1,9.1a4.16,4.16,0,0,1-2.5,1.1c.7-1.5,1.3-2.8,2-4.1,1.2-2.1,2.4-4.1,3.5-6.2a49.05,49.05,0,0,0,2.5-5.7,7.31,7.31,0,0,0,.3-3.3c-.2-1.6-1.4-2.2-2.9-1.6a3.61,3.61,0,0,0-1.5.8,70.78,70.78,0,0,0-5.9,5c-3.5,3.5-6.7,7.3-10.1,10.9a11.41,11.41,0,0,1-1.1,1.1,4.76,4.76,0,0,1,.7-2.1c1.7-2.8,3.5-5.6,5.1-8.4,1-1.9,2-3.8,2.9-5.8a2.12,2.12,0,0,0-.8-2.9,2.21,2.21,0,0,0-2.9.8,24,24,0,0,0-1.8,2.6c-.3.4-.6,1-1.1,1.2a23.47,23.47,0,0,1-7.4,2.2c-.2-.5-.3-.8-.4-1.1-.4-2-1.8-2.9-3.6-3.3a7.59,7.59,0,0,0-6.2,1.1c-.8.6-1.6,1.2-2.5,1.8a12.23,12.23,0,0,1-1.9,1.2c-3.2,1.3-6.3,2.6-9.5,3.8a5.77,5.77,0,0,1-1.4.3,11.43,11.43,0,0,1,1.9-5.8,5,5,0,0,1,3.6-2.5,1.56,1.56,0,0,0,.9-2.4,2.32,2.32,0,0,0-1.9-1.4,5.12,5.12,0,0,0-4.3,1c-1.1.9-2.1,2-3.1,3a9.58,9.58,0,0,1-1.8,1.7,43.88,43.88,0,0,0-7.1,5.8,5.66,5.66,0,0,1-2.4,1.9c-.4.2-.9.7-.9,1.1-.1,1.1-.9,1.7-1.5,2.4-1.7,1.6-3.4,3.3-5.1,4.9a2.32,2.32,0,0,1-2.1.9,2,2,0,0,0-.1-.5c.1-.3.2-.7.3-1a26.51,26.51,0,0,1,4.2-8.4c.6-.8,1.2-1.6,1.7-2.4.9-1.5.6-2.7-.9-3.5a2.89,2.89,0,0,1-1.6-3.1,17.85,17.85,0,0,0,.2-2.3,6.53,6.53,0,0,0,0-1.4,2.24,2.24,0,0,0-1.7-1.9,2,2,0,0,0-2.4.8c-1.1,1.4-1.3,3-1.6,4.7a9.51,9.51,0,0,1-.7,2.4,55.58,55.58,0,0,1-11.7,14.3,13.67,13.67,0,0,1-2.9,2,9.59,9.59,0,0,1-2.8.7c-1.8.1-2.5-.9-2.2-2.6a27.47,27.47,0,0,1,2.3-6c.8-1.8,1.9-3,4-3a8.83,8.83,0,0,0,2.6-.6,9.25,9.25,0,0,0,5.8-5.3c1.1-2.2.3-3.8-2-4.5a6.42,6.42,0,0,0-4.9.4,15.39,15.39,0,0,0-4.2,3c-1.5,1.6-3,3.3-4.5,5-.3-.1-.7-.1-1-.2-.7-.3-1.4-.7-2.1-1a3.05,3.05,0,0,1-1.6-2.1c-.9-3.4-2.8-4.3-6.1-3a21.48,21.48,0,0,0-2.6,1.4c-1.1.8-2.2,1.7-3.3,2.5a10.47,10.47,0,0,1-1.1.8c-.1-.2-.1-.2-.1-.3l.6-1.8a9.83,9.83,0,0,0,.5-1.6c.2-1.2-.1-1.9-.9-2.3s-1.6-.1-2.3.9c-.3.4-.5.9-.8,1.4-1.7,3.4-3.5,6.8-5.2,10.2a19.42,19.42,0,0,1-3.1,4.4A127.24,127.24,0,0,0,227,225.8a34.18,34.18,0,0,0-2.1,4.3,4.48,4.48,0,0,0-.4,2,1.89,1.89,0,0,0,2.5,2,12.64,12.64,0,0,0,2.6-1.3,27.56,27.56,0,0,0,6.5-6.7,131.39,131.39,0,0,0,10.8-18.5c.4-1,1-1.9,1.5-2.9a5.49,5.49,0,0,1,.7,2.4c.4,4.4,3.9,6.2,8,4.7a11.47,11.47,0,0,0,5.3-4.2c2.1-3.1,3.8-6.3,4.2-10.1,0-.1.2-.2.3-.4a17.79,17.79,0,0,1,3,1.7c-.5,1.2-1,2.2-1.5,3.3a13.17,13.17,0,0,0-1.1,6.5,4.66,4.66,0,0,0,3,4.2,7,7,0,0,0,4.5.4,14.11,14.11,0,0,0,6.2-3.7,58,58,0,0,0,10.2-12.9c.3-.6.7-1,1-1.5,1.2,1,2.3,1.8,3.4,2.7-.3.5-.6.9-.9,1.4-1.1,1.8-2.2,3.7-3.2,5.6a9.5,9.5,0,0,0-1.2,5,3.06,3.06,0,0,0,4.5,2.9,16.88,16.88,0,0,0,3.1-2.1c1.3-1.2,2.5-2.6,3.8-3.9.4-.5.9-.9,1.6-1.7.4,1.4.7,2.6,1.1,3.8a15.71,15.71,0,0,0,.9,2.3,5.61,5.61,0,0,0,10,.3,10,10,0,0,0,1-2.1c.4-1.9.8-3.8,1.1-5.7.1-.8.1-1.7.2-2.6,3.2-1.4,6.3-2.6,9.3-3.9a7.43,7.43,0,0,1-1.3,2.1,18.89,18.89,0,0,0-3.8,9.1,4.6,4.6,0,0,0,3.8,5.4,7.21,7.21,0,0,0,4.1-.3,18.7,18.7,0,0,0,7.4-5.3,25.8,25.8,0,0,0,6-11c2.2-.7,4.3-1.3,6.8-2-.9,1.5-1.8,2.6-2.4,3.8-1.3,2.4-2.6,4.9-3.7,7.4a9.37,9.37,0,0,0-.7,3.7c0,2.1,1.5,3,3.4,2a4.19,4.19,0,0,0,1.4-.9l2.8-3.1c3.3-3.8,6.6-7.6,10-11.4a20.25,20.25,0,0,1,5.7-4.8,3.81,3.81,0,0,1,1.5-.3c-.8,1.4-1.2,2.6-1.9,3.6-1.2,1.8-2.5,3.5-3.7,5.3-1.7,2.5-3.7,4.9-4.6,7.9a10,10,0,0,0-.4,2.4,3.1,3.1,0,0,0,4.1,3.1,9.2,9.2,0,0,0,2.8-1.4,55.57,55.57,0,0,0,4.4-3.9,10.9,10.9,0,0,0,1.3-1.1v2.9a3.56,3.56,0,0,0,4.5,3.2,8.83,8.83,0,0,0,3-1.3c1.6-1.1,3.2-2.4,4.8-3.6.4-.3.7-.6,1.3-1a7.17,7.17,0,0,0-.1,1.3c-.1,2.7,1.6,4.5,4.5,4.7a15.09,15.09,0,0,0,7.5-1.5c2.1-1,4.2-2.1,6.5-3.3a5.78,5.78,0,0,1,.7,1.4,5.55,5.55,0,0,0,5.2,4.1,11.68,11.68,0,0,0,8-1.6c3.4-2.1,6.6-4.4,9.9-6.6A9.14,9.14,0,0,0,428,204c.2-.2.1-.7.1-1.3a9.05,9.05,0,0,0-1.1.6,56.3,56.3,0,0,1-10.2,7.1,31.22,31.22,0,0,1-4.2,1.8,5.26,5.26,0,0,1-3.9-.1c-.9-.3-1.7-.9-1.6-1.9C407.4,208,407.6,205.8,409.7,204.3Zm3.9-10.1a173.32,173.32,0,0,1,10.7-15.7,67.23,67.23,0,0,1,5.1-5.7,9.61,9.61,0,0,1,2.1-1.4c1.1-.5,1.8-.1,1.8,1.1a5.82,5.82,0,0,1-.3,2.6,50.54,50.54,0,0,1-2.4,5.3,42.36,42.36,0,0,1-8.1,10.3A114.88,114.88,0,0,1,410,201.1,41,41,0,0,1,413.6,194.2Zm-131.4-1.9a1.93,1.93,0,0,1,1-.3,1.75,1.75,0,0,1,1.2.4,2.23,2.23,0,0,1-.1,1.1,7.24,7.24,0,0,1-7.5,4C278.4,195.4,279.9,193.5,282.2,192.3ZM226.3,231a3.48,3.48,0,0,1,.6-2.8c1.6-2.7,3.1-5.4,4.9-8,2.4-3.4,5.1-6.6,7.6-9.9.2-.3.3-.6.5-.9l.5.5C236.3,217.1,232.9,224.9,226.3,231Zm36.4-35.6a22.27,22.27,0,0,1-5.4,11.1,9,9,0,0,1-3,2.1c-1.4.7-2.5.1-3.2-1.3a16,16,0,0,1-1-5.2,4.91,4.91,0,0,1,2.2-4.7c1.9-1.5,3.7-3.1,5.6-4.4a11.32,11.32,0,0,1,3.2-1.3c.9-.2,1.4.1,1.5,1A8.17,8.17,0,0,1,262.7,195.4ZM311,209.6a1.62,1.62,0,0,1-2.3,1.1,4.08,4.08,0,0,1-2.1-1.5,18.42,18.42,0,0,1-2.1-6.5c2.7-.1,4.9-.3,7.1-.4A14.87,14.87,0,0,1,311,209.6Zm1-8.6c-1.9.7-3.7.4-5.5.5.5-1.6,3.2-4.3,6.1-6.1A56.2,56.2,0,0,0,312,201Zm28.9-1.8a23.47,23.47,0,0,1-9.2,10.5,10.38,10.38,0,0,1-3.5,1.2c-1.6.3-2.2-.6-1.8-2.1a21,21,0,0,1,6.3-10.6c1.2-1.1,2.4-2.1,3.5-3,2,.8,3.5,1.4,5.2,2C341.6,197.8,341.2,198.5,340.9,199.2Zm.7-3.9c-1.2.6-2.1-.1-3.2-.7.6-.6,1.1-1.2,1.7-1.8A2.5,2.5,0,0,1,341.6,195.3Zm44.2,7.3a37.56,37.56,0,0,1-9.1,7.2c-.7.3-1.4.6-2.5,1.1a13.72,13.72,0,0,1,2.4-5.3,28,28,0,0,1,9.1-9,31.33,31.33,0,0,1,3.2-1.5,1.72,1.72,0,0,1,2.2.4C389.3,197.9,387.8,200.5,385.8,202.6Z" transform="translate(-9.43 -10.43)"/><path class="cls-1" d="M232.4,200c.2-.2.2-.6.4-1.3-2.3.6-4.6,1.5-6.8,2.3a23.07,23.07,0,0,1-7.2,1.8c.4-1.7.6-3.1,1-4.5.9-2.6,2.3-4.8,5.1-5.6.9-.2,1.6-.7,1.5-1.7a1.67,1.67,0,0,0-1.6-1.7,8.22,8.22,0,0,0-2.7-.2,5.56,5.56,0,0,0-3.4,1.5c-1.2,1-2.5,2.1-3.8,3a63.36,63.36,0,0,0-10.3,9.1,3.67,3.67,0,0,1-2,1.4,1.49,1.49,0,0,0-1.2,1.3,1.49,1.49,0,0,1-.4.9c-1.5,1.4-3,2.7-4.5,4a1.19,1.19,0,0,1-1.6.1,23.49,23.49,0,0,1,2.3-5.7c1.1-1.9,2.2-3.7,3.3-5.5,3.2-5.3,6.5-10.6,9.7-15.9l1.21-1.92c4.2-.09,8.4-.19,12.69-.38a7.8,7.8,0,0,0,2.2-.4c.5-.2,1-.5.7-1s-.8-.5-1.4-.4c-1.4.1-2.9.3-4.3.4-3,.11-5.9.15-8.85.14a33.82,33.82,0,0,0,2.85-5.44,1.83,1.83,0,0,0-.4-2.1,2.09,2.09,0,0,0-2.4,0c-2.57,1.75-4.55,4.84-6.33,7.42l-.77,0c-2.7,0-5.3-.1-8-.1-.9,0-1.8-.1-2.6-.1a9.63,9.63,0,0,0-2.4,0h.1a.73.73,0,0,0-.33.15.06.06,0,0,0,0-.05s0,.06-.08.09h0a.64.64,0,0,0,.29,1.1c.4.1,1,.1,1.4.2,3.3.3,6.6.5,9.9.5H205c-2.12,3.17-4.1,6.48-6.07,9.8-1.3,2.1-2.3,4.4-3.7,6.3a86.31,86.31,0,0,1-10.4,11.4,23.49,23.49,0,0,1-3.2,2.3,2.87,2.87,0,0,1-3.1.1,10.23,10.23,0,0,1,.8-2.1c1.9-3.4,3.8-6.8,5.8-10.1,1.1-1.9,2.3-3.7,3.4-5.5.8-1.4.7-2.8-.2-3.6a3.17,3.17,0,0,0-4,.1,12,12,0,0,0-1.1,1.2,63.85,63.85,0,0,0-7.9,13.9,13.86,13.86,0,0,0-.9,4.5c0,3.3,2.4,5,5.6,4.4a11.51,11.51,0,0,0,5.7-3.4c1.9-1.9,3.6-3.9,5.4-5.8a15.56,15.56,0,0,1,1.2-1.1c-.2.9-.4,1.4-.5,2a19.63,19.63,0,0,0-.4,4.1c.1,2.8,2.2,4.1,4.8,3a15.4,15.4,0,0,0,3.1-2.1c1.1-.9,2.1-2,3.3-3.1a16.19,16.19,0,0,0,.6,1.7,12.06,12.06,0,0,0,2.8,4.9,5.08,5.08,0,0,0,4.5,1.7,6.29,6.29,0,0,0,4.9-3.1,19,19,0,0,0,2.6-6.6,1.91,1.91,0,0,1,1.6-1.6c3.8-1.2,7.5-2.5,11.2-3.8A5.07,5.07,0,0,0,232.4,200Zm-21.2,12a2.07,2.07,0,0,1-3.2.7,11.23,11.23,0,0,1-2-1.8,12.84,12.84,0,0,1-2.1-4.6,23.23,23.23,0,0,1,9-.4A13.33,13.33,0,0,1,211.2,212Zm2-8.2H206c2.7-3.1,5.2-5.9,8.5-8C214.1,198.5,213.7,201,213.2,203.8Z" transform="translate(-9.43 -10.43)"/><path class="cls-1" d="M151.1,198.9a16.54,16.54,0,0,1,.7-3.2c.7-1.6,1.3-3.2,3.4-3.6a1.8,1.8,0,0,0,.9-3,3,3,0,0,0-1.7-1,5,5,0,0,0-4.8,1.4,12.46,12.46,0,0,0-3,4.2,4.57,4.57,0,0,1-1.4,1.7c-1.9,1.5-3.8,3-5.6,4.6-1.5,1.3-3,2.7-4.4,4.1-.2-.1-.3-.1-.4-.2-1.2-.5-1.5-.4-1.6.8,0,.7.2,1.3-.4,1.8-1.3,1.1-2.3,2.4-4.2,2.8a9.19,9.19,0,0,0,.7-2.6c1.6-3,3.2-5.9,4.7-8.9,1.1-2.1,2.1-4.1,3.1-6.2a1.24,1.24,0,0,0-.1-1.7,1.53,1.53,0,0,0-1.9-.3,6.52,6.52,0,0,0-2.1,1.6,74.23,74.23,0,0,0-4.6,6.4c-2.1,3.5-4.2,6.9-7.5,9.4-1.2.8-2.3,1.9-4,2.2a5.11,5.11,0,0,1,.7-3.1c2-4.1,4.1-8.2,6.2-12.3.4-.8.9-1.6,1.2-2.4a1.86,1.86,0,0,0-.5-2.1,1.8,1.8,0,0,0-2.3-.2,5,5,0,0,0-1.4,1.5c-1.9,3.3-3.8,6.5-5.6,9.8a54.83,54.83,0,0,0-2.3,5.6c-.8,2.4-.4,4.6,1,5.6,2,1.4,3.9.7,5.7-.4a29.15,29.15,0,0,0,2.9-2.3c.4-.3.7-.5,1.2-.9,0,.7.1,1.1.1,1.5.3,2.8,2.6,4.2,5.1,2.9a22.7,22.7,0,0,0,3.5-2.6c.6-.5,1.1-1,1.7-1.6.6,1.2,1.1,2.2,1.6,3.3,1.2,2.5,6.1,4.1,8.8,2.7a8.84,8.84,0,0,0,4.6-4.9,28.76,28.76,0,0,0,1.1-4.2c.2-.8.4-1.6.5-2.3,3.2-1.2,6.5-1.5,9.2-3.4-3,.7-5.9,1.7-9.1,2.3C150.9,200.7,151,199.8,151.1,198.9ZM143.2,210a3.38,3.38,0,0,1-4.5.3,8.22,8.22,0,0,1-2.8-4.4c1.7-.2,3.1-.4,4.6-.6s2.8-.6,4.4-.9C144.8,206.5,144.8,208.4,143.2,210Zm1.9-6.8a22.09,22.09,0,0,1-7.3,1.5c1.2-2.1,6-6.5,7.8-7.4C145.4,199.3,145.3,201.2,145.1,203.2Z" transform="translate(-9.43 -10.43)"/><path class="cls-1" d="M99.4,193a3.26,3.26,0,0,0-4.7-1.9,12,12,0,0,0-2.7,1.6,28.51,28.51,0,0,0-6.5,6.9A21.48,21.48,0,0,0,82,208a5,5,0,0,0,5.2,6c.2-.1.8-.1,1.3-.3a10.17,10.17,0,0,0,5.2-3.2,33.33,33.33,0,0,0,6.4-10.9,7.45,7.45,0,0,0-.1-5.1Zm-.4,5.8a26.37,26.37,0,0,1-6.9,10.5,7,7,0,0,1-3.9,1.8c-1.2.1-1.8-.3-1.8-1.6a11.63,11.63,0,0,1,.4-1.8,29.58,29.58,0,0,1,8.6-12.3c1.2-1.1,1.4-1.1,3.2-1.3A4.69,4.69,0,0,1,99,198.8Z" transform="translate(-9.43 -10.43)"/><path class="cls-1" d="M189.7,187.7a2.52,2.52,0,0,0,2.4-2.5c.1-.8-1.2-2.2-2.1-2.2s-2.1,1.3-2.1,2.7A1.79,1.79,0,0,0,189.7,187.7Z" transform="translate(-9.43 -10.43)"/><path class="cls-1" d="M158.2,207.8a1.27,1.27,0,0,0-1.7.3,1.49,1.49,0,0,0-.4.9c-.2,2.3-1.4,4-2.5,5.9a4.05,4.05,0,0,0-.5.9c-.2.6.3,1.2,1.2,1.2.3-.1.8-.3.8-.6,1.3-2.3,2.6-4.5,3.7-6.8A1.29,1.29,0,0,0,158.2,207.8Z" transform="translate(-9.43 -10.43)"/><path class="cls-1" d="M223,175a7,7,0,0,0,1.4-1.6c.7-1.5,1.2-3,1.8-4.5a1.09,1.09,0,0,0,.1-.5c0-.7-.3-1.1-.9-1.1a.92.92,0,0,0-1.2.7,1.27,1.27,0,0,0-.1.6,11,11,0,0,1-2.2,5.2c-.3.3-.5.7-.1,1.1A.83.83,0,0,0,223,175Z" transform="translate(-9.43 -10.43)"/><path class="cls-1" d="M110.3,177.8c-12.5,0-25,.1-37.6.1-1.2,0-2.9.4-3.6,1.5s.5,1.6,1.5,1.6q8.57,0,17.14-.05c-.78,1.5-1.61,3.15-1.84,3.55-6,9.1-11.3,18.6-16.4,28.3-2.1,3.9-4.1,7.9-6.2,11.8a1.4,1.4,0,0,0,.2,1.9,1.53,1.53,0,0,0,1.9.2,8,8,0,0,0,1.5-1.7c5.8-9.6,11.6-19.3,17.3-29,2.25-3.72,6.33-11.19,8.56-15.06q7.71,0,15.44,0c1.2,0,2.9-.4,3.6-1.5S111.2,177.8,110.3,177.8Z" transform="translate(-9.43 -10.43)"/></svg>